<?xml version="1.0" standalone="no"?>
<!DOCTYPE svg PUBLIC "-//W3C//DTD SVG 20010904//EN"
 "http://www.w3.org/TR/2001/REC-SVG-20010904/DTD/svg10.dtd">
<svg version="1.0" xmlns="http://www.w3.org/2000/svg"
 width="4675.000000pt" height="4676.000000pt" viewBox="0 0 4675.000000 4676.000000"
 preserveAspectRatio="xMidYMid meet">
<metadata>
Created by potrace 1.16, written by Peter Selinger 2001-2019
</metadata>
<g transform="translate(0.000000,4676.000000) scale(0.100000,-0.100000)"
fill="#000000" stroke="none">
<path d="M25225 35098 c-170 -326 -341 -651 -378 -723 -168 -321 -321 -612
-392 -750 -43 -82 -79 -151 -80 -153 -2 -2 -463 -14 -1450 -37 -132 -3 -419
-10 -639 -16 -219 -5 -399 -9 -401 -7 -2 3 -343 580 -607 1028 -422 716 -670
1135 -671 1136 -6 5 -483 -119 -485 -126 -2 -4 -12 -6 -22 -3 -15 4 -20 0 -20
-16 0 -21 -20 -25 -48 -7 -8 5 -18 3 -25 -4 -9 -10 -9 -11 3 -5 13 8 13 6 1
-8 -7 -9 -17 -15 -21 -12 -4 3 -13 -2 -20 -10 -15 -18 -10 -18 24 -5 42 16 30
4 -26 -25 -29 -15 -68 -39 -85 -53 -31 -23 -39 -20 -34 11 0 4 -6 7 -15 7 -8
0 -12 5 -8 11 3 6 19 9 35 7 18 -3 30 1 34 10 8 20 6 24 -7 16 -7 -5 -9 -2 -6
8 4 8 0 15 -8 15 -7 0 -11 -4 -8 -9 3 -4 2 -13 -2 -20 -5 -8 -11 -6 -20 6 -11
16 -13 16 -19 -3 -4 -12 -15 -21 -26 -21 -12 0 -17 4 -14 11 5 7 -3 9 -21 7
-15 -2 -29 -9 -30 -16 -1 -7 0 -8 3 -2 2 5 12 10 21 9 11 0 12 -2 4 -6 -6 -2
-10 -8 -8 -11 2 -4 -9 -8 -25 -8 -23 -1 -27 1 -19 11 9 11 7 12 -10 8 -11 -3
-23 -9 -25 -14 -3 -4 -12 -6 -20 -2 -8 3 -15 0 -15 -7 0 -6 -4 -9 -9 -6 -5 3
-14 -1 -21 -9 -7 -8 -17 -12 -24 -8 -8 5 -8 3 0 -8 14 -20 12 -42 -6 -46 -13
-4 -13 -3 0 6 13 9 13 11 -2 11 -10 0 -18 -6 -18 -12 0 -9 -4 -8 -10 2 -5 8
-10 11 -10 5 0 -5 -22 -10 -49 -11 -28 0 -48 3 -45 8 8 13 -10 9 -34 -8 -12
-8 -22 -12 -22 -8 0 3 -7 1 -15 -6 -8 -6 -18 -9 -23 -7 -4 3 -14 2 -22 -3 -11
-7 -8 -9 10 -8 14 1 31 6 38 11 8 6 12 6 12 -1 0 -6 -9 -13 -19 -17 -12 -4
-18 -12 -14 -20 7 -20 -23 -30 -42 -15 -10 9 -15 9 -15 1 0 -6 -4 -11 -9 -11
-5 0 -8 8 -6 18 3 18 25 18 36 0 3 -5 9 -2 13 8 4 10 4 15 0 11 -4 -4 -12 -3
-19 3 -6 5 -21 7 -33 3 -17 -4 -20 -9 -12 -18 14 -17 -3 -29 -31 -20 -30 10
-47 -10 -44 -50 3 -32 1 -35 -22 -35 l-25 0 23 20 c21 17 22 21 9 30 -24 16
-30 12 -36 -20 -4 -16 -10 -27 -15 -25 -4 3 -6 12 -2 20 3 9 -1 15 -8 15 -11
0 -11 3 1 11 13 9 13 10 0 6 -8 -2 -14 -10 -13 -18 2 -8 -10 -20 -25 -27 -23
-11 -29 -10 -39 4 -12 16 -13 16 -19 1 -3 -10 -10 -17 -16 -17 -5 0 -7 4 -4 9
4 5 -10 4 -29 -2 -22 -6 -32 -14 -27 -21 5 -6 9 -23 10 -38 1 -22 -3 -28 -19
-28 -11 0 -17 5 -14 10 4 6 11 7 17 4 7 -4 7 0 0 12 -6 11 -10 23 -10 27 0 17
-12 20 -13 4 -3 -32 -4 -36 -16 -48 -10 -10 -17 -10 -35 0 -15 7 -16 10 -4 6
16 -5 17 -3 6 10 -17 20 -27 19 -35 -5 -3 -11 -11 -20 -17 -20 -6 0 -6 6 2 15
7 8 10 15 7 15 -22 0 -564 -235 -792 -343 -82 -39 -151 -71 -152 -72 -1 0 14
-106 33 -235 66 -444 149 -1011 269 -1825 30 -209 58 -390 60 -402 4 -19 -125
-121 -972 -769 -538 -411 -984 -751 -990 -757 -15 -11 12 -22 -493 196 -967
417 -1806 780 -1815 783 -12 5 -196 -208 -376 -436 -450 -567 -827 -1133
-1173 -1764 l-99 -178 205 -207 c113 -113 508 -516 878 -894 l673 -689 -351
-1186 c-193 -652 -355 -1189 -360 -1194 -4 -4 -553 -131 -1219 -281 -667 -150
-1215 -275 -1218 -278 -7 -7 -22 -175 -30 -333 -4 -61 -8 -124 -11 -141 -12
-77 -16 -966 -5 -1180 10 -200 41 -608 56 -745 26 -239 58 -476 63 -481 4 -3
214 -40 467 -82 253 -43 714 -120 1025 -172 311 -53 657 -111 769 -130 112
-19 205 -36 208 -38 2 -3 191 -530 419 -1173 357 -1006 412 -1170 400 -1183
-7 -9 -381 -433 -829 -944 l-816 -927 53 -88 c452 -743 1005 -1465 1610 -2103
l101 -106 1124 558 c1116 555 1125 559 1150 543 14 -10 152 -103 306 -209 154
-106 582 -398 950 -650 369 -252 691 -474 718 -494 41 -31 47 -40 47 -71 0
-40 -24 -311 -74 -855 -20 -209 -56 -603 -81 -875 -25 -272 -52 -550 -58 -617
l-13 -123 136 -55 c540 -224 1226 -447 1816 -591 181 -44 648 -142 794 -166
25 -4 44 30 478 866 249 479 510 981 581 1116 l129 245 1128 32 c621 17 1181
32 1244 32 l115 1 110 -183 c60 -100 347 -582 638 -1072 290 -489 531 -893
535 -896 4 -4 95 16 202 43 685 172 1366 404 1992 679 143 63 519 237 526 243
1 2 -61 419 -137 927 -162 1072 -234 1560 -229 1563 8 6 1840 1419 1909 1473
l56 44 319 -135 c176 -74 688 -293 1139 -486 451 -194 827 -355 837 -357 38
-11 556 641 875 1102 256 371 621 973 744 1227 l22 47 -204 210 c-112 115
-507 517 -878 892 -610 618 -673 684 -668 708 6 28 686 2364 690 2367 3 3 710
165 1077 248 133 30 621 140 1205 273 88 20 162 38 164 39 7 6 30 377 42 684
22 594 -9 1273 -87 1885 -14 110 -28 221 -31 246 -3 26 -9 53 -13 60 -5 8
-183 41 -477 90 -988 162 -1998 330 -1999 332 -13 17 -833 2334 -830 2343 3 8
372 434 821 948 448 514 815 938 815 942 0 3 -32 59 -72 123 -445 719 -968
1399 -1550 2014 l-140 147 -1116 -560 c-615 -309 -1124 -559 -1133 -557 -12 3
-971 652 -1644 1112 -49 34 -161 110 -247 169 -184 124 -167 86 -143 337 8 85
26 285 40 444 14 160 28 313 30 340 3 28 12 129 20 225 9 96 18 198 20 225 3
28 23 257 45 510 22 253 42 476 45 496 l5 35 -222 88 c-671 267 -1329 467
-2003 611 -215 46 -421 85 -449 85 -18 0 -70 -94 -331 -592z m-1440 -3518
c1385 -75 2684 -475 3857 -1186 1169 -710 2171 -1740 2857 -2939 950 -1659
1287 -3616 950 -5510 -243 -1369 -847 -2682 -1724 -3750 -248 -302 -649 -718
-920 -954 -1268 -1107 -2755 -1780 -4385 -1985 -390 -50 -574 -60 -1040 -60
-566 0 -910 28 -1440 119 -1329 229 -2599 799 -3658 1642 -458 365 -931 834
-1297 1287 -953 1182 -1560 2606 -1749 4106 -50 390 -60 574 -60 1040 0 466
10 650 60 1040 207 1646 903 3175 2014 4424 149 168 439 461 601 607 1318
1192 2944 1914 4704 2089 393 39 854 50 1230 30z"/>
<path d="M22925 30769 c-1529 -95 -2994 -658 -4170 -1603 -297 -238 -696 -618
-931 -886 -1695 -1930 -2270 -4588 -1524 -7044 241 -795 632 -1570 1124 -2234
1315 -1770 3280 -2842 5486 -2992 215 -15 730 -15 940 -1 1466 102 2815 600
3965 1466 1276 961 2202 2296 2650 3820 471 1605 390 3301 -233 4855 -260 651
-641 1302 -1086 1855 -238 297 -618 697 -886 931 -1250 1098 -2796 1731 -4480
1834 -189 11 -663 11 -855 -1z m685 -1779 c1269 -61 2417 -508 3380 -1318 165
-139 538 -514 674 -677 787 -948 1222 -2033 1307 -3260 14 -208 6 -679 -16
-885 -73 -705 -259 -1350 -564 -1960 -197 -395 -433 -754 -725 -1105 -134
-160 -508 -534 -676 -675 -935 -786 -2062 -1239 -3275 -1317 -259 -17 -692 -6
-950 23 -1456 166 -2753 860 -3688 1974 -760 906 -1214 2043 -1296 3245 -11
166 -6 676 8 820 79 791 275 1466 613 2115 590 1135 1583 2057 2763 2568 608
264 1305 425 1935 449 91 3 167 7 169 9 7 6 125 4 341 -6z"/>
</g>
</svg>
